Coordinates
version=1
nRows=12
nColumns=24
inDegrees=yes

Units are S.I. units (second, meters, Newtons, ...)
Angles are in degrees.

endheader
time	pelvis_tilt	pelvis_list	pelvis_rotation	pelvis_tx	pelvis_ty	pelvis_tz	hip_flexion_r	hip_adduction_r	hip_rotation_r	knee_angle_r	ankle_angle_r	subtalar_angle_r	mtp_angle_r	hip_flexion_l	hip_adduction_l	hip_rotation_l	knee_angle_l	ankle_angle_l	subtalar_angle_l	mtp_angle_l	lumbar_extension	lumbar_bending	lumbar_rotation
      3.62500000	    -12.51617390	     -2.57395775	     -7.19873829	     -1.32372552	     -0.01469326	     -0.22516921	      6.18419430	      6.48549227	      5.81267796	     -7.12146673	      4.64970346	     -7.81995098	     11.56567986	     38.39079560	     -7.46565599	     -6.88569211	    -51.96606323	     -3.64067135	     -8.34123459	      9.39700637	      5.46433005	      4.24322417	      4.47671178
      3.63000000	    -12.58668964	     -2.48628805	     -7.29609371	     -1.31695885	     -0.01552187	     -0.22495523	      5.69637441	      6.36917630	      5.91811572	     -6.86987940	      4.89191478	     -7.84022024	     11.59538965	     38.88461745	     -7.37913777	     -6.76415883	    -50.67995936	     -3.44989858	     -7.99684264	      9.44045107	      5.50218068	      4.14830180	      4.59622219
      3.63500000	    -12.63278384	     -2.38735386	     -7.42109266	     -1.31016796	     -0.01636596	     -0.22467738	      5.18620085	      6.24363640	      6.01947257	     -6.62371796	      5.14470122	     -7.85357621	     11.63043534	     39.30784505	     -7.31616779	     -6.68430845	    -49.33333774	     -3.22491269	     -7.55537559	      9.49329424	      5.51644677	      4.03608222	      4.74356839
      3.64000000	    -12.55462314	     -2.29257509	     -7.60663482	     -1.30341566	     -0.01708805	     -0.22433277	      4.54512134	      6.10850341	      6.16686430	     -6.37948166	      5.38272655	     -7.82472513	     11.68160486	     39.53950004	     -7.31067673	     -6.70947858	    -47.91753854	     -2.94649135	     -7.03754622	      9.52785687	      5.38449411	      3.92812113	      4.96694511
      3.64500000	    -12.65377129	     -2.20271679	     -7.68422500	     -1.29664566	     -0.01807896	     -0.22417733	      4.10647072	      5.98825090	      6.22117767	     -6.15511437	      5.61979878	     -7.86911707	     11.71067100	     39.97605465	     -7.23214614	     -6.57349970	    -46.46273750	     -2.81119477	     -6.65337065	      9.51425973	      5.45367096	      3.83376598	      5.08255624
      3.65000000	    -12.61170283	     -2.08537738	     -7.85377146	     -1.28990603	     -0.01888818	     -0.22386170	      3.53326839	      5.82710843	      6.32795325	     -5.95588676	      5.86203066	     -7.81353649	     11.77221816	     40.17899486	     -7.20860161	     -6.59241206	    -44.92205553	     -2.57059226	     -6.13086533	      9.41557631	      5.36244792	      3.69487454	      5.26951367
      3.65500000	    -12.72218071	     -1.98835583	     -7.93192592	     -1.28318161	     -0.01993787	     -0.22369206	      3.13597546	      5.70293350	      6.34557834	     -5.77777304	      6.08739485	     -7.84719776	     11.80546583	     40.55635685	     -7.14733404	     -6.47751285	    -43.35108239	     -2.46216541	     -5.72468190	      9.33044492	      5.43518116	      3.58750773	      5.36180366
      3.66000000	    -12.68497519	     -1.85348513	     -8.08665199	     -1.27645804	     -0.02080665	     -0.22342859	      2.58630609	      5.51505371	      6.37649900	     -5.60141920	      6.36859884	     -7.71980737	     11.89136599	     40.69941880	     -7.11089509	     -6.51463410	    -41.71055147	     -2.26164913	     -5.25009298	      8.99271440	      5.34767730	      3.43133281	      5.58088701
      3.66500000	    -12.70464424	     -1.70888770	     -8.18935709	     -1.26971573	     -0.02176212	     -0.22324667	      2.11013933	      5.31828675	      6.31416477	     -5.44379585	      6.65833312	     -7.56413436	     12.00146105	     40.88383470	     -7.03682619	     -6.51464972	    -40.03511027	     -2.07291423	     -4.80698833	      8.33169719	      5.32754597	      3.26456852	      5.72794618
      3.67000000	    -12.76140524	     -1.56995274	     -8.28786604	     -1.26299077	     -0.02278042	     -0.22306870	      1.68945967	      5.13443550	      6.19937758	     -5.31240130	      6.95233423	     -7.37368294	     12.14044336	     41.08405705	     -6.97842615	     -6.51760356	    -38.34737291	     -1.83413096	     -4.33727195	      7.31065825	      5.34353217	      3.10505942	      5.87307239
      3.67500000	    -12.94631544	     -1.50843505	     -8.31342843	     -1.25631849	     -0.02400554	     -0.22288060	      1.39459748	      5.06836904	      6.09815966	     -5.17498917	      7.11043682	     -7.43861530	     12.15796036	     41.43181646	     -6.97999008	     -6.41940463	    -36.64502223	     -1.82852410	     -3.93153878	      7.13314828	      5.48363834	      3.01662803	      5.91536566
      3.68000000	    -12.93472846	     -1.32404241	     -8.44485961	     -1.24960170	     -0.02491946	     -0.22267434	      0.92919316	      4.82377436	      5.90581974	     -5.08004884	      7.44638967	     -7.09113984	     12.28727797	     41.46626887	     -6.91309374	     -6.53774368	    -34.85796564	     -1.73532214	     -3.60684189	      6.30194310	      5.42526685	      2.80467071	      6.13054976
